<svg xmlns="http://www.w3.org/2000/svg" viewBox="0 0 600 170" role="img" aria-labelledby="title desc">
  <title id="title">myRadOne</title>
  <desc id="desc">One place for all your medical imaging</desc>
  <!-- Outlined asset generated from Google Fonts Lora 400/500 and Inter 400. No runtime font dependency. -->
  <path fill="#F08C00" d="M44 0V30Q75 30 87.0 45.5Q99 61 101.0 88.5Q103 116 103 152V380Q103 396 103.5 412.0Q104 428 107 445Q89 444 71.5 443.0Q54 442 36 441V483Q80 483 102.5 487.0Q125 491 136.0 497.0Q147 503 154 510H183Q185 500 185.5 487.0Q186 474 187 457Q217 483 256.0 499.5Q295 516 334 516Q384 516 418.0 498.0Q452 480 471 449Q505 477 549.5 496.5Q594 516 637 516Q724 516 765.0 463.5Q806 411 804 292L803 106Q803 86 802.5 70.5Q802 55 799 38Q815 39 830.5 39.5Q846 40 862 41V0H658V30Q689 30 701.0 45.5Q713 61 715.0 88.5Q717 116 717 152V292Q717 378 689.5 421.0Q662 464 603 463Q572 463 541.0 449.0Q510 435 487 414Q492 398 494.5 379.5Q497 361 497 341Q496 283 496.0 224.0Q496 165 495 106Q495 86 494.5 70.5Q494 55 491 38Q507 39 522.5 39.5Q538 40 554 41V0H350V30Q381 30 392.5 45.5Q404 61 406.5 88.5Q409 116 409 152L410 292Q411 378 385.0 422.0Q359 466 300 465Q269 465 239.0 451.5Q209 438 188 417Q188 405 188.5 391.5Q189 378 189 363V106Q189 86 188.5 70.5Q188 55 185 38Q201 39 216.5 39.5Q232 40 248 41V0Z" transform="translate(56.0160 80.0000) scale(0.096000 -0.096000)"/>
  <path fill="#F08C00" d="M121 -271Q90 -271 68.0 -256.0Q46 -241 46 -210Q46 -192 58.0 -177.0Q70 -162 89 -162Q113 -161 121.5 -177.0Q130 -193 130 -205Q130 -208 130.0 -211.5Q130 -215 129 -219Q132 -221 140 -221Q152 -221 166.0 -211.0Q180 -201 191 -182Q204 -160 221.5 -116.0Q239 -72 261 -11L105 323Q79 379 67.5 412.0Q56 445 52 461L4 459V500H211V470H207Q165 467 161.0 438.5Q157 410 184 352L301 101Q324 165 345.0 227.5Q366 290 387 352Q395 374 403.5 397.5Q412 421 420.5 439.5Q429 458 436 463L367 459V500H524V470Q487 456 468.5 423.5Q450 391 431 340L306 -9Q276 -93 251.0 -151.5Q226 -210 196.0 -240.5Q166 -271 121 -271Z" transform="translate(141.1680 80.0000) scale(0.096000 -0.096000)"/>
  <path fill="#F08C00" d="M55 0V33Q93 35 107.0 50.5Q121 66 122.5 93.5Q124 121 124 156V588Q124 608 125.0 626.5Q126 645 127 660Q109 659 91.0 658.0Q73 657 55 656V700Q111 701 168.5 702.0Q226 703 284 701Q381 700 440.5 678.5Q500 657 528.0 617.5Q556 578 556 522Q557 483 541.5 442.5Q526 402 485.5 370.0Q445 338 369 322Q389 308 404.0 286.0Q419 264 438 235L506 128Q523 101 539.0 79.5Q555 58 576.0 45.5Q597 33 628 33V0H502Q473 26 453.5 52.0Q434 78 413 111L346 218Q333 239 316.5 266.5Q300 294 279 313Q263 312 245.5 312.0Q228 312 211 313V119Q211 92 210.5 72.5Q210 53 208 40Q220 41 232.0 41.5Q244 42 256.0 43.0Q268 44 280 44V0ZM273 350Q328 352 369.5 368.0Q411 384 435.0 419.0Q459 454 459 511Q459 549 448.5 577.5Q438 606 416.0 625.0Q394 644 360.0 653.5Q326 663 280 663Q243 663 228.5 648.0Q214 633 212.5 606.5Q211 580 211 544V352Q227 351 241.5 350.0Q256 349 273 350Z" transform="translate(190.1280 80.0000) scale(0.096000 -0.096000)"/>
  <path fill="#F08C00" d="M348 0Q345 17 344.0 30.0Q343 43 341 57Q307 23 267.5 3.5Q228 -16 184 -16Q108 -16 71.0 18.5Q34 53 34 103Q34 149 62.5 182.5Q91 216 136.5 237.5Q182 259 235.5 269.5Q289 280 339 279V341Q339 376 333.0 407.0Q327 438 307.0 458.0Q287 478 243 479Q214 480 183.5 468.0Q153 456 139 427Q147 419 149.5 408.5Q152 398 152 389Q152 377 142.0 361.5Q132 346 107 347Q86 347 75.0 361.5Q64 376 64 396Q64 430 89.5 457.0Q115 484 160.0 500.0Q205 516 262 516Q346 516 386.0 471.5Q426 427 425 331Q425 294 425.0 256.5Q425 219 424.5 181.5Q424 144 424 106Q424 90 423.0 74.0Q422 58 420 38Q438 39 455.5 40.0Q473 41 491 42V0ZM339 245Q305 244 267.5 236.5Q230 229 198.5 214.0Q167 199 147.5 174.5Q128 150 129 115Q131 78 153.5 59.5Q176 41 207 41Q248 41 278.5 56.5Q309 72 339 100Q338 111 338.0 124.0Q338 137 338 151Q338 156 338.5 183.0Q339 210 339 245Z" transform="translate(250.4160 80.0000) scale(0.096000 -0.096000)"/>
  <path fill="#F08C00" d="M258 -16Q197 -16 148.0 14.5Q99 45 70.5 102.0Q42 159 42 236Q42 318 75.0 381.0Q108 444 166.5 480.0Q225 516 299 516Q332 516 364.5 507.5Q397 499 416 488V625Q416 641 416.5 655.5Q417 670 419 690Q401 689 383.5 688.0Q366 687 348 686V728Q392 728 416.0 732.0Q440 736 452.5 742.0Q465 748 472 755H501V106Q501 90 500.0 74.0Q499 58 497 38Q515 39 532.5 40.0Q550 41 568 42V0H425Q422 15 420.5 27.5Q419 40 418 52Q390 21 349.0 2.5Q308 -16 258 -16ZM294 33Q327 33 360.5 52.0Q394 71 416 99Q415 111 415.0 124.5Q415 138 415 154L416 442Q392 460 363.5 468.5Q335 477 305 477Q255 477 218.0 448.0Q181 419 162.0 367.0Q143 315 145 245Q147 184 164.5 136.0Q182 88 214.5 60.5Q247 33 294 33Z" transform="translate(299.9520 80.0000) scale(0.096000 -0.096000)"/>
  <path fill="#C4BFB3" d="M395.66705322265625 -16Q300.66705322265625 -16 233.16702270507812 16.0Q165.6669921875 48 123.66696166992188 101.5Q81.66693115234375 155 62.000244140625 220.0Q42.33355712890625 285 42.33355712890625 350Q42.33355712890625 413 63.500213623046875 477.5Q84.6668701171875 542 128.1668701171875 596.0Q171.6668701171875 650 237.33352661132812 683.0Q303.00018310546875 716 391.33349609375 716Q483.00018310546875 716 549.6668701171875 683.0Q616.3335571289062 650 659.3335876464844 595.5Q702.3336181640625 541 723.5003051757812 477.0Q744.6669921875 413 744.6669921875 350Q744.6669921875 288 723.5003356933594 223.66665649414062Q702.3336791992188 159.33331298828125 658.8336791992188 104.83331298828125Q615.3336791992188 50.33331298828125 550.0003662109375 17.166656494140625Q484.66705322265625 -16 395.66705322265625 -16ZM400.6668701171875 35.666015625Q459.333740234375 35.666015625 501.66729736328125 61.83270263671875Q544.0008544921875 87.9993896484375 571.3343811035156 131.33279418945312Q598.6679077148438 174.66619873046875 612.0013732910156 227.16632080078125Q625.3348388671875 279.66644287109375 625.3348388671875 331.6666259765625Q625.3348388671875 395.99981689453125 610.0014038085938 455.66656494140625Q594.66796875 515.3333129882812 564.33447265625 562.5001525878906Q534.0009765625 609.6669921875 488.8341064453125 637.50048828125Q443.667236328125 665.333984375 385.0003662109375 665.0006713867188Q326.66680908203125 664.6673583984375 283.9999084472656 637.8340148925781Q241.3330078125 611.0006713867188 213.99948120117188 567.5006103515625Q186.66595458984375 524.0005493164062 173.33248901367188 471.3337707519531Q159.9990234375 418.6669921875 159.9990234375 366.0001220703125Q159.9990234375 313.6666259765625 173.83245849609375 255.99981689453125Q187.6658935546875 198.3330078125 216.66607666015625 147.99957275390625Q245.666259765625 97.6661376953125 291.3331298828125 66.66607666015625Q337 35.666015625 400.6668701171875 35.666015625Z" transform="translate(357.3600 80.0000) scale(0.096000 -0.096000)"/>
  <path fill="#C4BFB3" d="M43.00006103515625 0V41.66595458984375Q73.0001220703125 41.66595458984375 85.0001220703125 55.666046142578125Q97.0001220703125 69.6661376953125 99.50009155273438 94.83294677734375Q102.00006103515625 119.999755859375 102.00006103515625 152.6666259765625L102.666748046875 360.6678466796875Q102.666748046875 377.33447265625 103.33340454101562 395.5010070800781Q104.00006103515625 413.66754150390625 106.666748046875 432.3341064453125Q89.3333740234375 431.3341064453125 70.5001220703125 430.5007629394531Q51.6668701171875 429.66741943359375 36.00006103515625 428.66741943359375V482.00006103515625Q80.66668701171875 482.00006103515625 106.33316040039062 486.3333740234375Q131.9996337890625 490.66668701171875 145.49948120117188 497.0Q158.99932861328125 503.33331298828125 165.99932861328125 510H201.66558837890625Q202.9989013671875 501.0001220703125 203.33224487304688 493.00006103515625Q203.66558837890625 485 204.49893188476562 475.8332214355469Q205.332275390625 466.66644287109375 206.33221435546875 452.66644287109375Q227.66558837890625 470.66650390625 253.99893188476562 484.8332214355469Q280.332275390625 498.99993896484375 308.6656799316406 507.4999694824219Q336.99908447265625 516 362.999267578125 516Q451.66583251953125 516 491.1658630371094 462.1666259765625Q530.6658935546875 408.333251953125 530.6658935546875 292.99993896484375V124.33221435546875Q530.6658935546875 106.33209228515625 529.9992370605469 87.49896240234375Q529.3325805664062 68.66583251953125 526.6658935546875 49.66595458984375Q542.9992065429688 50.999267578125 559.6658020019531 51.499267578125Q576.3323974609375 51.999267578125 590.33251953125 52.66595458984375V0H367.0003662109375V41.66595458984375Q397.00042724609375 41.66595458984375 409.1670837402344 55.666046142578125Q421.333740234375 69.6661376953125 423.8337097167969 94.83294677734375Q426.33367919921875 119.999755859375 426.33367919921875 152.6666259765625L426.0003662109375 293.333251953125Q425.33367919921875 372.33367919921875 400.83349609375 412.1672668457031Q376.33331298828125 452.0008544921875 322.3330078125 451.33416748046875Q289.99945068359375 450.66748046875 258.83258056640625 435.00067138671875Q227.66571044921875 419.3338623046875 206.66558837890625 395.66693115234375Q207.332275390625 385.66705322265625 207.332275390625 374.1671447753906Q207.332275390625 362.667236328125 207.332275390625 350.66729736328125L206.66558837890625 124.33221435546875Q206.66558837890625 106.33209228515625 205.99893188476562 87.49896240234375Q205.332275390625 68.66583251953125 202.66558837890625 49.66595458984375Q218.66558837890625 50.999267578125 235.49884033203125 51.499267578125Q252.33209228515625 51.999267578125 266.33221435546875 52.66595458984375V0Z" transform="translate(432.8160 80.0000) scale(0.096000 -0.096000)"/>
  <path fill="#C4BFB3" d="M283.33349609375 -16Q213.000244140625 -16 157.33358764648438 16.5Q101.66693115234375 49 70.000244140625 108.5Q38.33355712890625 168 38.33355712890625 249Q38.33355712890625 319 69.66690063476562 380.0Q101.000244140625 441 157.83358764648438 478.5Q214.66693115234375 516 289.66693115234375 516Q331.66693115234375 516 369.3335266113281 503.1666259765625Q407.0001220703125 490.333251953125 436.5000305175781 462.6665954589844Q465.99993896484375 434.99993896484375 483.1665344238281 391.3334045410156Q500.3331298828125 347.6668701171875 499.99981689453125 286.3338623046875L155.99932861328125 280.3338623046875Q155.99932861328125 211.666748046875 171.4993896484375 158.99978637695312Q186.99945068359375 106.33282470703125 221.99957275390625 76.99935913085938Q256.99969482421875 47.6658935546875 312.99981689453125 47.6658935546875Q340.3333740234375 47.6658935546875 370.50018310546875 57.3326416015625Q400.6669921875 66.9993896484375 428.1670227050781 85.16610717773438Q455.66705322265625 103.33282470703125 474.66693115234375 127.9993896484375L505.66650390625 100.66650390625Q475.66668701171875 55.66668701171875 436.666748046875 30.166717529296875Q397.66680908203125 4.666748046875 357.5001525878906 -5.6666259765625Q317.33349609375 -16 283.33349609375 -16ZM159.999267578125 331.6666259765625H391.33404541015625Q391.000732421875 369.66650390625 380.500732421875 400.16668701171875Q370.000732421875 430.6668701171875 348.0006103515625 448.6670837402344Q326.00048828125 466.66729736328125 292.00018310546875 466.66729736328125Q238.66656494140625 466.66729736328125 204.66629028320312 433.167236328125Q170.666015625 399.66717529296875 159.999267578125 331.6666259765625Z" transform="translate(492.0480 80.0000) scale(0.096000 -0.096000)"/>
  <path fill="#A09B8F" d="M776.4442138671875 -21.77783203125Q582.7774658203125 -21.77783203125 431.72186279296875 73.61114501953125Q280.666259765625 169.0001220703125 194.2218017578125 341.3890380859375Q107.77734375 513.7779541015625 107.77734375 744Q107.77734375 975.66650390625 194.2218017578125 1148.055419921875Q280.666259765625 1320.4443359375 431.72186279296875 1416.111083984375Q582.7774658203125 1511.77783203125 776.4442138671875 1511.77783203125Q970.555419921875 1511.77783203125 1121.1110229492188 1416.111083984375Q1271.6666259765625 1320.4443359375 1357.8333129882812 1148.055419921875Q1444 975.66650390625 1444 744Q1444 513.7779541015625 1357.8333129882812 341.3890380859375Q1271.6666259765625 169.0001220703125 1121.1110229492188 73.61114501953125Q970.555419921875 -21.77783203125 776.4442138671875 -21.77783203125ZM776.4442138671875 150.66650390625Q910.3331298828125 150.66650390625 1020.2776489257812 219.055419921875Q1130.22216796875 287.4443359375 1195.7222290039062 420.05548095703125Q1261.2222900390625 552.6666259765625 1261.2222900390625 744Q1261.2222900390625 936.888916015625 1195.7222290039062 1069.7222900390625Q1130.22216796875 1202.5556640625 1020.2776489257812 1270.944580078125Q910.3331298828125 1339.33349609375 776.4442138671875 1339.33349609375Q641.999755859375 1339.33349609375 531.7774658203125 1270.6668090820312Q421.55517578125 1202.0001220703125 356.05511474609375 1069.166748046875Q290.5550537109375 936.3333740234375 290.5550537109375 744Q290.5550537109375 552.6666259765625 356.05511474609375 420.333251953125Q421.55517578125 287.9998779296875 531.7774658203125 219.33319091796875Q641.999755859375 150.66650390625 776.4442138671875 150.66650390625Z" transform="translate(108.5205 140.0000) scale(0.010742 -0.010742)"/>
  <path fill="#A09B8F" d="M319.332763671875 646.88818359375V0H143.77734375V1090.443603515625H313.6661376953125L314.2216796875 826.1104736328125H278.9991455078125Q330.443603515625 975.7769775390625 424.0546875 1041.4436645507812Q517.665771484375 1107.1103515625 643.77685546875 1107.1103515625Q754.110107421875 1107.1103515625 840.4434814453125 1060.6103515625Q926.77685546875 1014.1103515625 976.4991455078125 920.8325805664062Q1026.221435546875 827.5548095703125 1026.221435546875 685.999267578125V0H850.666015625V672.3326416015625Q850.666015625 804.8883056640625 784.054931640625 876.3327026367188Q717.44384765625 947.777099609375 599.554931640625 947.777099609375Q520.8883056640625 947.777099609375 457.332763671875 914.554931640625Q393.7772216796875 881.332763671875 356.55499267578125 814.5549926757812Q319.332763671875 747.7772216796875 319.332763671875 646.88818359375Z" transform="translate(125.1924 140.0000) scale(0.010742 -0.010742)"/>
  <path fill="#A09B8F" d="M598.665771484375 -24Q439.7769775390625 -24 325.8326416015625 47.5555419921875Q211.8883056640625 119.111083984375 150.83282470703125 246.11102294921875Q89.77734375 373.1109619140625 89.77734375 539.3330078125Q89.77734375 706.4439697265625 151.3328857421875 834.7772216796875Q212.888427734375 963.1104736328125 323.94390869140625 1035.9993286132812Q434.9993896484375 1108.88818359375 581.6658935546875 1108.88818359375Q679.99951171875 1108.88818359375 767.388427734375 1074.7213745117188Q854.77734375 1040.5545654296875 921.9439086914062 971.2766723632812Q989.1104736328125 901.998779296875 1027.3325805664062 797.4432983398438Q1065.5546875 692.8878173828125 1065.5546875 552.1104736328125V489.5552978515625H197.5546875V638.8885498046875H969.443603515625L890.3326416015625 585.11083984375Q890.3326416015625 694.221923828125 854.0548095703125 777.05517578125Q817.7769775390625 859.888427734375 748.8880615234375 906.1661376953125Q679.9991455078125 952.44384765625 581.6658935546875 952.44384765625Q483.777099609375 952.44384765625 412.88824462890625 905.610595703125Q341.9993896484375 858.77734375 303.77716064453125 779.27734375Q265.554931640625 699.77734375 265.554931640625 601.2215576171875V513.11083984375Q265.554931640625 395.7777099609375 306.11041259765625 310.38885498046875Q346.6658935546875 225 421.72137451171875 179.1666259765625Q496.77685546875 133.333251953125 599.2213134765625 133.333251953125Q669.221435546875 133.333251953125 724.5548095703125 154.33331298828125Q779.88818359375 175.3333740234375 818.2214965820312 215.38897705078125Q856.5548095703125 255.444580078125 875.33251953125 311.5556640625L1047.5546875 284.8896484375Q1024.221435546875 193.3338623046875 961.7769775390625 123.77813720703125Q899.33251953125 54.222412109375 806.4991455078125 15.1112060546875Q713.665771484375 -24 598.665771484375 -24Z" transform="translate(137.7607 140.0000) scale(0.010742 -0.010742)"/>
  <path fill="#A09B8F" d="M143.77734375 -418V1090.443603515625H314.2216796875V921.6661376953125H326.221435546875Q351.8883056640625 964.555419921875 393.8885498046875 1007.1664428710938Q435.8887939453125 1049.7774658203125 499.8887939453125 1078.4439086914062Q563.8887939453125 1107.1103515625 654.666015625 1107.1103515625Q793.777099609375 1107.1103515625 898.7214965820312 1037.5548095703125Q1003.6658935546875 967.999267578125 1062.6102905273438 841.166015625Q1121.5546875 714.332763671875 1121.5546875 543.55517578125Q1121.5546875 372.66650390625 1062.8880615234375 245.55548095703125Q1004.221435546875 118.4444580078125 899.2770385742188 48.11114501953125Q794.3326416015625 -22.22216796875 655.2215576171875 -22.22216796875Q566.1109619140625 -22.22216796875 502.8887939453125 6.7220458984375Q439.6666259765625 35.666259765625 397.5552978515625 79.27728271484375Q355.4439697265625 122.8883056640625 327.999267578125 167.2220458984375H319.332763671875V-418ZM628.666015625 135.22216796875Q727.8880615234375 135.22216796875 798.1658325195312 186.61090087890625Q868.443603515625 237.9996337890625 905.9436645507812 330.16619873046875Q943.4437255859375 422.332763671875 943.4437255859375 544.666259765625Q943.4437255859375 666.888671875 906.221435546875 757.9441528320312Q868.9991455078125 848.9996337890625 798.7213745117188 899.5550537109375Q728.443603515625 950.1104736328125 628.666015625 950.1104736328125Q527.8883056640625 950.1104736328125 456.9993896484375 899.44384765625Q386.1104736328125 848.7772216796875 349.05487060546875 757.8328247070312Q311.999267578125 666.888427734375 311.999267578125 544.666259765625Q311.999267578125 422.8885498046875 349.3326416015625 330.5552978515625Q386.666015625 238.2220458984375 457.83270263671875 186.72210693359375Q528.9993896484375 135.22216796875 628.666015625 135.22216796875Z" transform="translate(156.0117 140.0000) scale(0.010742 -0.010742)"/>
  <path fill="#A09B8F" d="M319.332763671875 1490V0H143.77734375V1490Z" transform="translate(169.0205 140.0000) scale(0.010742 -0.010742)"/>
  <path fill="#A09B8F" d="M460.7774658203125 -21.555419921875Q355.221923828125 -21.555419921875 270.27752685546875 16.666748046875Q185.3331298828125 54.888916015625 135.44427490234375 129.44439697265625Q85.555419921875 203.9998779296875 85.555419921875 311.777587890625Q85.555419921875 405.5552978515625 122.44427490234375 464.221923828125Q159.3331298828125 522.8885498046875 221.0552978515625 556.4996337890625Q282.7774658203125 590.1107177734375 359.11077880859375 607.1107177734375Q435.444091796875 624.1107177734375 513.8885498046875 634.1107177734375Q614.3330078125 647.55517578125 675.1107177734375 654.55517578125Q735.888427734375 661.55517578125 763.7216796875 678.1107177734375Q791.554931640625 694.666259765625 791.554931640625 735.2218017578125V742.9996337890625Q791.554931640625 807.6661376953125 764.8882446289062 854.3883056640625Q738.2215576171875 901.1104736328125 685.9993286132812 926.8882446289062Q633.777099609375 952.666015625 557.554931640625 952.666015625Q480.6661376953125 952.666015625 423.88836669921875 927.8882446289062Q367.110595703125 903.1104736328125 332.49951171875 863.6104125976562Q297.888427734375 824.1103515625 286.11083984375 778.887939453125L113.11083984375 810.5538330078125Q139.221435546875 910.33154296875 204.22119140625 975.831787109375Q269.220947265625 1041.33203125 360.3321533203125 1074.22119140625Q451.443359375 1107.1103515625 554.7772216796875 1107.1103515625Q626.7777099609375 1107.1103515625 699.611083984375 1088.4990844726562Q772.4444580078125 1069.8878173828125 832.7220458984375 1027.2210693359375Q892.9996337890625 984.5543212890625 929.6105346679688 912.4989624023438Q966.221435546875 840.443603515625 966.221435546875 732.9998779296875V0H793.2215576171875V151.111083984375H784.7772216796875Q765.7772216796875 112.5555419921875 725.99951171875 72.388916015625Q686.2218017578125 32.2222900390625 621.2218627929688 5.33343505859375Q556.221923828125 -21.555419921875 460.7774658203125 -21.555419921875ZM488.666259765625 134.3333740234375Q590.444091796875 134.3333740234375 657.666259765625 172.66668701171875Q724.888427734375 211 758.2216796875 272.38885498046875Q791.554931640625 333.7777099609375 791.554931640625 402.22216796875V546.9996337890625Q780.9993896484375 535.7774658203125 748.6661987304688 526.3886108398438Q716.3330078125 516.999755859375 672.8331298828125 509.22198486328125Q629.333251953125 501.4442138671875 584.833251953125 495.27752685546875Q540.333251953125 489.11083984375 505.8885498046875 484.7774658203125Q442.6663818359375 476.7774658203125 387.0552978515625 457.2774658203125Q331.4442138671875 437.7774658203125 297.4442138671875 401.1663818359375Q263.4442138671875 364.5552978515625 263.4442138671875 302.3331298828125Q263.4442138671875 248.333251953125 291.88861083984375 210.88885498046875Q320.3330078125 173.4444580078125 370.9996337890625 153.888916015625Q421.666259765625 134.3333740234375 488.666259765625 134.3333740234375Z" transform="translate(173.9941 140.0000) scale(0.010742 -0.010742)"/>
  <path fill="#A09B8F" d="M590.3326416015625 -24Q440.9993896484375 -24 328.2772216796875 47.33331298828125Q215.5550537109375 118.6666259765625 152.66619873046875 245.9998779296875Q89.77734375 373.3331298828125 89.77734375 540.444091796875Q89.77734375 709.6661376953125 152.66619873046875 837.7216186523438Q215.5550537109375 965.777099609375 328.2772216796875 1037.3326416015625Q440.9993896484375 1108.88818359375 590.3326416015625 1108.88818359375Q675.332763671875 1108.88818359375 749.3328247070312 1084.9992065429688Q823.3328857421875 1061.1102294921875 882.388427734375 1017.1656494140625Q941.4439697265625 973.2210693359375 981.7772216796875 911.4987182617188Q1022.1104736328125 849.7763671875 1039.7769775390625 773.6651611328125L867.221435546875 746.443603515625Q856.5548095703125 791.221435546875 832.88818359375 828.5548095703125Q809.2215576171875 865.88818359375 774.166015625 893.277099609375Q739.1104736328125 920.666015625 693.1104736328125 935.8327026367188Q647.1104736328125 950.9993896484375 590.3326416015625 950.9993896484375Q484.110595703125 950.9993896484375 412.33282470703125 896.49951171875Q340.5550537109375 841.9996337890625 304.2216796875 749.221923828125Q267.8883056640625 656.4442138671875 267.8883056640625 540.444091796875Q267.8883056640625 425.99951171875 304.2216796875 333.94403076171875Q340.5550537109375 241.8885498046875 412.110595703125 187.888671875Q483.6661376953125 133.8887939453125 590.3326416015625 133.8887939453125Q647.666015625 133.8887939453125 693.777099609375 148.8887939453125Q739.88818359375 163.8887939453125 774.6103515625 191.833251953125Q809.33251953125 219.7777099609375 832.9991455078125 258.44439697265625Q856.665771484375 297.111083984375 868.665771484375 343.4444580078125L1041.9991455078125 316.222900390625Q1024.88818359375 239.8895263671875 984.2771606445312 177.61163330078125Q943.6661376953125 115.333740234375 884.110595703125 70.05584716796875Q824.5550537109375 24.7779541015625 749.9994506835938 0.38897705078125Q675.44384765625 -24 590.3326416015625 -24Z" transform="translate(185.9180 140.0000) scale(0.010742 -0.010742)"/>
  <path fill="#A09B8F" d="M598.665771484375 -24Q439.7769775390625 -24 325.8326416015625 47.5555419921875Q211.8883056640625 119.111083984375 150.83282470703125 246.11102294921875Q89.77734375 373.1109619140625 89.77734375 539.3330078125Q89.77734375 706.4439697265625 151.3328857421875 834.7772216796875Q212.888427734375 963.1104736328125 323.94390869140625 1035.9993286132812Q434.9993896484375 1108.88818359375 581.6658935546875 1108.88818359375Q679.99951171875 1108.88818359375 767.388427734375 1074.7213745117188Q854.77734375 1040.5545654296875 921.9439086914062 971.2766723632812Q989.1104736328125 901.998779296875 1027.3325805664062 797.4432983398438Q1065.5546875 692.8878173828125 1065.5546875 552.1104736328125V489.5552978515625H197.5546875V638.8885498046875H969.443603515625L890.3326416015625 585.11083984375Q890.3326416015625 694.221923828125 854.0548095703125 777.05517578125Q817.7769775390625 859.888427734375 748.8880615234375 906.1661376953125Q679.9991455078125 952.44384765625 581.6658935546875 952.44384765625Q483.777099609375 952.44384765625 412.88824462890625 905.610595703125Q341.9993896484375 858.77734375 303.77716064453125 779.27734375Q265.554931640625 699.77734375 265.554931640625 601.2215576171875V513.11083984375Q265.554931640625 395.7777099609375 306.11041259765625 310.38885498046875Q346.6658935546875 225 421.72137451171875 179.1666259765625Q496.77685546875 133.333251953125 599.2213134765625 133.333251953125Q669.221435546875 133.333251953125 724.5548095703125 154.33331298828125Q779.88818359375 175.3333740234375 818.2214965820312 215.38897705078125Q856.5548095703125 255.444580078125 875.33251953125 311.5556640625L1047.5546875 284.8896484375Q1024.221435546875 193.3338623046875 961.7769775390625 123.77813720703125Q899.33251953125 54.222412109375 806.4991455078125 15.1112060546875Q713.665771484375 -24 598.665771484375 -24Z" transform="translate(198.0137 140.0000) scale(0.010742 -0.010742)"/>
  <path fill="#A09B8F" d="M637.5543212890625 1090.443603515625V939.999267578125H17.7777099609375V1090.443603515625ZM223.5550537109375 0V1256.7774658203125Q223.5550537109375 1344.44384765625 263.94378662109375 1404.999267578125Q304.33251953125 1465.5546875 372.66571044921875 1497.2213134765625Q440.9989013671875 1528.887939453125 523.7767333984375 1528.887939453125Q574.887451171875 1528.887939453125 611.9984130859375 1523.0547485351562Q649.109375 1517.2215576171875 664.2203369140625 1512.2216796875L636.4432373046875 1361.77734375Q624.66552734375 1364.5550537109375 598.1654052734375 1367.8883056640625Q571.665283203125 1371.2215576171875 542.554443359375 1371.2215576171875Q466.665771484375 1371.2215576171875 432.88812255859375 1334.7217407226562Q399.1104736328125 1298.221923828125 399.1104736328125 1222.9998779296875V0Z" transform="translate(216.2646 140.0000) scale(0.010742 -0.010742)"/>
  <path fill="#A09B8F" d="M590.3326416015625 -24Q440.9993896484375 -24 328.2772216796875 47.33331298828125Q215.5550537109375 118.6666259765625 152.66619873046875 245.9998779296875Q89.77734375 373.3331298828125 89.77734375 540.444091796875Q89.77734375 709.6661376953125 152.66619873046875 837.7216186523438Q215.5550537109375 965.777099609375 328.2772216796875 1037.3326416015625Q440.9993896484375 1108.88818359375 590.3326416015625 1108.88818359375Q740.6658935546875 1108.88818359375 853.443603515625 1037.3326416015625Q966.2213134765625 965.777099609375 1029.1101684570312 837.7216186523438Q1091.9990234375 709.6661376953125 1091.9990234375 540.444091796875Q1091.9990234375 373.3331298828125 1029.1101684570312 245.9998779296875Q966.2213134765625 118.6666259765625 853.443603515625 47.33331298828125Q740.6658935546875 -24 590.3326416015625 -24ZM590.3326416015625 133.8887939453125Q697.5546875 133.8887939453125 769.665771484375 187.888671875Q841.77685546875 241.8885498046875 878.1102294921875 334.166259765625Q914.443603515625 426.4439697265625 914.443603515625 540.444091796875Q914.443603515625 655.888671875 878.1102294921875 748.721923828125Q841.77685546875 841.55517578125 769.665771484375 896.2772827148438Q697.5546875 950.9993896484375 590.3326416015625 950.9993896484375Q484.110595703125 950.9993896484375 412.33282470703125 896.49951171875Q340.5550537109375 841.9996337890625 304.2216796875 749.221923828125Q267.8883056640625 656.4442138671875 267.8883056640625 540.444091796875Q267.8883056640625 425.99951171875 304.2216796875 333.94403076171875Q340.5550537109375 241.8885498046875 412.110595703125 187.888671875Q483.6661376953125 133.8887939453125 590.3326416015625 133.8887939453125Z" transform="translate(223.3330 140.0000) scale(0.010742 -0.010742)"/>
  <path fill="#A09B8F" d="M143.77734375 0V1090.443603515625H312.44384765625V921.1103515625H320.88818359375Q350.999267578125 1004.7769775390625 423.16571044921875 1055.6102905273438Q495.3321533203125 1106.443603515625 594.8876953125 1106.443603515625Q616.2210693359375 1106.443603515625 640.1654052734375 1104.9991455078125Q664.1097412109375 1103.5546875 677.4429931640625 1102.1102294921875V925.999267578125Q668.5540771484375 928.4437255859375 638.1096801757812 932.6659545898438Q607.665283203125 936.88818359375 571.2208251953125 936.88818359375Q500.9989013671875 936.88818359375 443.49908447265625 906.2771606445312Q385.999267578125 875.6661376953125 352.666015625 817.8328247070312Q319.332763671875 759.99951171875 319.332763671875 677.777099609375V0Z" transform="translate(236.0303 140.0000) scale(0.010742 -0.010742)"/>
  <path fill="#A09B8F" d="M460.7774658203125 -21.555419921875Q355.221923828125 -21.555419921875 270.27752685546875 16.666748046875Q185.3331298828125 54.888916015625 135.44427490234375 129.44439697265625Q85.555419921875 203.9998779296875 85.555419921875 311.777587890625Q85.555419921875 405.5552978515625 122.44427490234375 464.221923828125Q159.3331298828125 522.8885498046875 221.0552978515625 556.4996337890625Q282.7774658203125 590.1107177734375 359.11077880859375 607.1107177734375Q435.444091796875 624.1107177734375 513.8885498046875 634.1107177734375Q614.3330078125 647.55517578125 675.1107177734375 654.55517578125Q735.888427734375 661.55517578125 763.7216796875 678.1107177734375Q791.554931640625 694.666259765625 791.554931640625 735.2218017578125V742.9996337890625Q791.554931640625 807.6661376953125 764.8882446289062 854.3883056640625Q738.2215576171875 901.1104736328125 685.9993286132812 926.8882446289062Q633.777099609375 952.666015625 557.554931640625 952.666015625Q480.6661376953125 952.666015625 423.88836669921875 927.8882446289062Q367.110595703125 903.1104736328125 332.49951171875 863.6104125976562Q297.888427734375 824.1103515625 286.11083984375 778.887939453125L113.11083984375 810.5538330078125Q139.221435546875 910.33154296875 204.22119140625 975.831787109375Q269.220947265625 1041.33203125 360.3321533203125 1074.22119140625Q451.443359375 1107.1103515625 554.7772216796875 1107.1103515625Q626.7777099609375 1107.1103515625 699.611083984375 1088.4990844726562Q772.4444580078125 1069.8878173828125 832.7220458984375 1027.2210693359375Q892.9996337890625 984.5543212890625 929.6105346679688 912.4989624023438Q966.221435546875 840.443603515625 966.221435546875 732.9998779296875V0H793.2215576171875V151.111083984375H784.7772216796875Q765.7772216796875 112.5555419921875 725.99951171875 72.388916015625Q686.2218017578125 32.2222900390625 621.2218627929688 5.33343505859375Q556.221923828125 -21.555419921875 460.7774658203125 -21.555419921875ZM488.666259765625 134.3333740234375Q590.444091796875 134.3333740234375 657.666259765625 172.66668701171875Q724.888427734375 211 758.2216796875 272.38885498046875Q791.554931640625 333.7777099609375 791.554931640625 402.22216796875V546.9996337890625Q780.9993896484375 535.7774658203125 748.6661987304688 526.3886108398438Q716.3330078125 516.999755859375 672.8331298828125 509.22198486328125Q629.333251953125 501.4442138671875 584.833251953125 495.27752685546875Q540.333251953125 489.11083984375 505.8885498046875 484.7774658203125Q442.6663818359375 476.7774658203125 387.0552978515625 457.2774658203125Q331.4442138671875 437.7774658203125 297.4442138671875 401.1663818359375Q263.4442138671875 364.5552978515625 263.4442138671875 302.3331298828125Q263.4442138671875 248.333251953125 291.88861083984375 210.88885498046875Q320.3330078125 173.4444580078125 370.9996337890625 153.888916015625Q421.666259765625 134.3333740234375 488.666259765625 134.3333740234375Z" transform="translate(249.6729 140.0000) scale(0.010742 -0.010742)"/>
  <path fill="#A09B8F" d="M319.332763671875 1490V0H143.77734375V1490Z" transform="translate(261.5967 140.0000) scale(0.010742 -0.010742)"/>
  <path fill="#A09B8F" d="M319.332763671875 1490V0H143.77734375V1490Z" transform="translate(266.5703 140.0000) scale(0.010742 -0.010742)"/>
  <path fill="#A09B8F" d="M137.333251953125 -410.7779541015625 162.88818359375 -257.4447021484375 219.6671142578125 -260.222412109375Q264.8890380859375 -268 301.22210693359375 -258.3887939453125Q337.55517578125 -248.777587890625 366.8883056640625 -215.22216796875Q396.221435546875 -181.666748046875 418.77685546875 -117.667236328125L462.332763671875 0.6668701171875L43.3330078125 1090.443603515625H234.5550537109375L468.1104736328125 451.8887939453125Q502.1103515625 360.3336181640625 528.5548095703125 269.8895263671875Q554.999267578125 179.4454345703125 582.221435546875 92.3345947265625H525.5550537109375Q552.7772216796875 179.4454345703125 579.7216796875 270.16729736328125Q606.6661376953125 360.88916015625 639.666015625 451.8887939453125L872.5546875 1090.443603515625H1061.8878173828125L572.6656494140625 -179.8892822265625Q541.3323974609375 -260.8890380859375 495.83245849609375 -314.8333740234375Q450.33251953125 -368.7777099609375 390.4437255859375 -395.61102294921875Q330.554931640625 -422.4443359375 256.888427734375 -422.4443359375Q218.66650390625 -422.4443359375 187.6666259765625 -418.5555419921875Q156.666748046875 -414.666748046875 137.333251953125 -410.7779541015625Z" transform="translate(277.4307 140.0000) scale(0.010742 -0.010742)"/>
  <path fill="#A09B8F" d="M590.3326416015625 -24Q440.9993896484375 -24 328.2772216796875 47.33331298828125Q215.5550537109375 118.6666259765625 152.66619873046875 245.9998779296875Q89.77734375 373.3331298828125 89.77734375 540.444091796875Q89.77734375 709.6661376953125 152.66619873046875 837.7216186523438Q215.5550537109375 965.777099609375 328.2772216796875 1037.3326416015625Q440.9993896484375 1108.88818359375 590.3326416015625 1108.88818359375Q740.6658935546875 1108.88818359375 853.443603515625 1037.3326416015625Q966.2213134765625 965.777099609375 1029.1101684570312 837.7216186523438Q1091.9990234375 709.6661376953125 1091.9990234375 540.444091796875Q1091.9990234375 373.3331298828125 1029.1101684570312 245.9998779296875Q966.2213134765625 118.6666259765625 853.443603515625 47.33331298828125Q740.6658935546875 -24 590.3326416015625 -24ZM590.3326416015625 133.8887939453125Q697.5546875 133.8887939453125 769.665771484375 187.888671875Q841.77685546875 241.8885498046875 878.1102294921875 334.166259765625Q914.443603515625 426.4439697265625 914.443603515625 540.444091796875Q914.443603515625 655.888671875 878.1102294921875 748.721923828125Q841.77685546875 841.55517578125 769.665771484375 896.2772827148438Q697.5546875 950.9993896484375 590.3326416015625 950.9993896484375Q484.110595703125 950.9993896484375 412.33282470703125 896.49951171875Q340.5550537109375 841.9996337890625 304.2216796875 749.221923828125Q267.8883056640625 656.4442138671875 267.8883056640625 540.444091796875Q267.8883056640625 425.99951171875 304.2216796875 333.94403076171875Q340.5550537109375 241.8885498046875 412.110595703125 187.888671875Q483.6661376953125 133.8887939453125 590.3326416015625 133.8887939453125Z" transform="translate(288.8711 140.0000) scale(0.010742 -0.010742)"/>
  <path fill="#A09B8F" d="M526.7774658203125 -16.666748046875Q416.888671875 -16.666748046875 330.0552978515625 29.833251953125Q243.221923828125 76.333251953125 193.4996337890625 170.11102294921875Q143.77734375 263.8887939453125 143.77734375 404.4443359375V1090.443603515625H319.332763671875V418.1109619140625Q319.332763671875 285.5552978515625 386.44384765625 214.11090087890625Q453.554931640625 142.66650390625 570.9993896484375 142.66650390625Q649.666015625 142.66650390625 712.9437866210938 175.888671875Q776.2215576171875 209.11083984375 813.4437866210938 276.38861083984375Q850.666015625 343.6663818359375 850.666015625 443.555419921875V1090.443603515625H1026.7769775390625V0H856.3326416015625V264.3331298828125H890.9996337890625Q838.9996337890625 114 744.8330078125 48.6666259765625Q650.6663818359375 -16.666748046875 526.7774658203125 -16.666748046875Z" transform="translate(301.5684 140.0000) scale(0.010742 -0.010742)"/>
  <path fill="#A09B8F" d="M143.77734375 0V1090.443603515625H312.44384765625V921.1103515625H320.88818359375Q350.999267578125 1004.7769775390625 423.16571044921875 1055.6102905273438Q495.3321533203125 1106.443603515625 594.8876953125 1106.443603515625Q616.2210693359375 1106.443603515625 640.1654052734375 1104.9991455078125Q664.1097412109375 1103.5546875 677.4429931640625 1102.1102294921875V925.999267578125Q668.5540771484375 928.4437255859375 638.1096801757812 932.6659545898438Q607.665283203125 936.88818359375 571.2208251953125 936.88818359375Q500.9989013671875 936.88818359375 443.49908447265625 906.2771606445312Q385.999267578125 875.6661376953125 352.666015625 817.8328247070312Q319.332763671875 759.99951171875 319.332763671875 677.777099609375V0Z" transform="translate(314.1475 140.0000) scale(0.010742 -0.010742)"/>
  <path fill="#A09B8F" d="M143.77734375 0V1090.443603515625H314.7772216796875L315.332763671875 855.55517578125H298.2215576171875Q324.7772216796875 940.332763671875 374.7216796875 996.7215576171875Q424.6661376953125 1053.1103515625 490.49945068359375 1081.7769775390625Q556.332763671875 1110.443603515625 628.332763671875 1110.443603515625Q751.2216796875 1110.443603515625 831.6107177734375 1037.4436645507812Q911.999755859375 964.4437255859375 933.5552978515625 854.444091796875H904.666259765625Q925.9996337890625 929.9993896484375 977.2218017578125 987.6659545898438Q1028.4439697265625 1045.33251953125 1102.1661376953125 1077.8880615234375Q1175.8883056640625 1110.443603515625 1264.79860778947 1110.443603515625Q1361.700847184577 1110.443603515625 1441.6202198815724 1068.443603515625Q1521.5395925785679 1026.443603515625 1568.991720117409 941.443603515625Q1616.44384765625 856.443603515625 1616.44384765625 726.443603515625V0H1440.888427734375V723.6658935546875Q1440.888427734375 845.3829524739583 1372.487235550332 897.6911100260417Q1304.0860433662888 949.999267578125 1213.5550537109375 949.999267578125Q1137.7319833260995 949.999267578125 1082.633885513117 918.2697523773693Q1027.535787700135 886.5402371766137 997.7120466820987 831.1394963498975Q967.8883056640625 775.7387555231813 967.8883056640625 704.221435546875V0H792.3328857421875V741.6658935546875Q792.3328857421875 835.5548095703125 729.6661987304688 892.7770385742188Q666.99951171875 949.999267578125 571.3853515625 949.999267578125Q505.96513671875 949.999267578125 448.093408203125 919.2770385742188Q390.2216796875 888.5548095703125 354.7772216796875 827.9168315686677Q319.332763671875 767.278853567023 319.332763671875 677.33251953125V0Z" transform="translate(327.7900 140.0000) scale(0.010742 -0.010742)"/>
  <path fill="#A09B8F" d="M598.665771484375 -24Q439.7769775390625 -24 325.8326416015625 47.5555419921875Q211.8883056640625 119.111083984375 150.83282470703125 246.11102294921875Q89.77734375 373.1109619140625 89.77734375 539.3330078125Q89.77734375 706.4439697265625 151.3328857421875 834.7772216796875Q212.888427734375 963.1104736328125 323.94390869140625 1035.9993286132812Q434.9993896484375 1108.88818359375 581.6658935546875 1108.88818359375Q679.99951171875 1108.88818359375 767.388427734375 1074.7213745117188Q854.77734375 1040.5545654296875 921.9439086914062 971.2766723632812Q989.1104736328125 901.998779296875 1027.3325805664062 797.4432983398438Q1065.5546875 692.8878173828125 1065.5546875 552.1104736328125V489.5552978515625H197.5546875V638.8885498046875H969.443603515625L890.3326416015625 585.11083984375Q890.3326416015625 694.221923828125 854.0548095703125 777.05517578125Q817.7769775390625 859.888427734375 748.8880615234375 906.1661376953125Q679.9991455078125 952.44384765625 581.6658935546875 952.44384765625Q483.777099609375 952.44384765625 412.88824462890625 905.610595703125Q341.9993896484375 858.77734375 303.77716064453125 779.27734375Q265.554931640625 699.77734375 265.554931640625 601.2215576171875V513.11083984375Q265.554931640625 395.7777099609375 306.11041259765625 310.38885498046875Q346.6658935546875 225 421.72137451171875 179.1666259765625Q496.77685546875 133.333251953125 599.2213134765625 133.333251953125Q669.221435546875 133.333251953125 724.5548095703125 154.33331298828125Q779.88818359375 175.3333740234375 818.2214965820312 215.38897705078125Q856.5548095703125 255.444580078125 875.33251953125 311.5556640625L1047.5546875 284.8896484375Q1024.221435546875 193.3338623046875 961.7769775390625 123.77813720703125Q899.33251953125 54.222412109375 806.4991455078125 15.1112060546875Q713.665771484375 -24 598.665771484375 -24Z" transform="translate(346.6963 140.0000) scale(0.010742 -0.010742)"/>
  <path fill="#A09B8F" d="M556.1104736328125 -22.22216796875Q417.9993896484375 -22.22216796875 312.55499267578125 48.11114501953125Q207.110595703125 118.4444580078125 148.4439697265625 245.55548095703125Q89.77734375 372.66650390625 89.77734375 543.55517578125Q89.77734375 714.332763671875 148.72174072265625 841.166015625Q207.6661376953125 967.999267578125 313.11053466796875 1037.5548095703125Q418.554931640625 1107.1103515625 556.666015625 1107.1103515625Q647.8876953125 1107.1103515625 711.2210083007812 1078.4439086914062Q774.5543212890625 1049.7774658203125 816.3878784179688 1007.1664428710938Q858.221435546875 964.555419921875 883.332763671875 921.6661376953125H891.999267578125V1490H1067.5546875V0H897.1103515625V167.2220458984375H885.110595703125Q858.221435546875 122.8883056640625 815.3878784179688 79.27728271484375Q772.5543212890625 35.666259765625 709.3876953125 6.7220458984375Q646.2210693359375 -22.22216796875 556.1104736328125 -22.22216796875ZM582.666015625 135.22216796875Q682.88818359375 135.22216796875 753.777099609375 186.72210693359375Q824.666015625 238.2220458984375 861.9993896484375 330.5552978515625Q899.332763671875 422.8885498046875 899.332763671875 544.666259765625Q899.332763671875 666.888427734375 862.2771606445312 757.8328247070312Q825.2215576171875 848.7772216796875 754.3326416015625 899.44384765625Q683.4437255859375 950.1104736328125 582.666015625 950.1104736328125Q483.3328857421875 950.1104736328125 412.8328857421875 899.5550537109375Q342.3328857421875 848.9996337890625 305.110595703125 757.9441528320312Q267.8883056640625 666.888671875 267.8883056640625 544.666259765625Q267.8883056640625 422.332763671875 305.38836669921875 330.16619873046875Q342.888427734375 237.9996337890625 413.66619873046875 186.61090087890625Q484.4439697265625 135.22216796875 582.666015625 135.22216796875Z" transform="translate(359.0605 140.0000) scale(0.010742 -0.010742)"/>
  <path fill="#A09B8F" d="M143.77734375 0V1090.443603515625H319.332763671875V0ZM232.110595703125 1283.6661376953125Q182.4439697265625 1283.6661376953125 146.77734375 1318.2739688648899Q111.1107177734375 1352.881800034467 111.1107177734375 1401.332763671875Q111.1107177734375 1450.44384765625 146.77734375 1484.7216186523438Q182.4439697265625 1518.9993896484375 231.9034696412318 1518.9993896484375Q282.332763671875 1518.9993896484375 317.9993896484375 1484.7216186523438Q353.666015625 1450.44384765625 353.666015625 1401.1172688802083Q353.666015625 1352.7772216796875 317.97117009238593 1318.2216796875Q282.2763245597718 1283.6661376953125 232.110595703125 1283.6661376953125Z" transform="translate(372.0693 140.0000) scale(0.010742 -0.010742)"/>
  <path fill="#A09B8F" d="M590.3326416015625 -24Q440.9993896484375 -24 328.2772216796875 47.33331298828125Q215.5550537109375 118.6666259765625 152.66619873046875 245.9998779296875Q89.77734375 373.3331298828125 89.77734375 540.444091796875Q89.77734375 709.6661376953125 152.66619873046875 837.7216186523438Q215.5550537109375 965.777099609375 328.2772216796875 1037.3326416015625Q440.9993896484375 1108.88818359375 590.3326416015625 1108.88818359375Q675.332763671875 1108.88818359375 749.3328247070312 1084.9992065429688Q823.3328857421875 1061.1102294921875 882.388427734375 1017.1656494140625Q941.4439697265625 973.2210693359375 981.7772216796875 911.4987182617188Q1022.1104736328125 849.7763671875 1039.7769775390625 773.6651611328125L867.221435546875 746.443603515625Q856.5548095703125 791.221435546875 832.88818359375 828.5548095703125Q809.2215576171875 865.88818359375 774.166015625 893.277099609375Q739.1104736328125 920.666015625 693.1104736328125 935.8327026367188Q647.1104736328125 950.9993896484375 590.3326416015625 950.9993896484375Q484.110595703125 950.9993896484375 412.33282470703125 896.49951171875Q340.5550537109375 841.9996337890625 304.2216796875 749.221923828125Q267.8883056640625 656.4442138671875 267.8883056640625 540.444091796875Q267.8883056640625 425.99951171875 304.2216796875 333.94403076171875Q340.5550537109375 241.8885498046875 412.110595703125 187.888671875Q483.6661376953125 133.8887939453125 590.3326416015625 133.8887939453125Q647.666015625 133.8887939453125 693.777099609375 148.8887939453125Q739.88818359375 163.8887939453125 774.6103515625 191.833251953125Q809.33251953125 219.7777099609375 832.9991455078125 258.44439697265625Q856.665771484375 297.111083984375 868.665771484375 343.4444580078125L1041.9991455078125 316.222900390625Q1024.88818359375 239.8895263671875 984.2771606445312 177.61163330078125Q943.6661376953125 115.333740234375 884.110595703125 70.05584716796875Q824.5550537109375 24.7779541015625 749.9994506835938 0.38897705078125Q675.44384765625 -24 590.3326416015625 -24Z" transform="translate(377.0430 140.0000) scale(0.010742 -0.010742)"/>
  <path fill="#A09B8F" d="M460.7774658203125 -21.555419921875Q355.221923828125 -21.555419921875 270.27752685546875 16.666748046875Q185.3331298828125 54.888916015625 135.44427490234375 129.44439697265625Q85.555419921875 203.9998779296875 85.555419921875 311.777587890625Q85.555419921875 405.5552978515625 122.44427490234375 464.221923828125Q159.3331298828125 522.8885498046875 221.0552978515625 556.4996337890625Q282.7774658203125 590.1107177734375 359.11077880859375 607.1107177734375Q435.444091796875 624.1107177734375 513.8885498046875 634.1107177734375Q614.3330078125 647.55517578125 675.1107177734375 654.55517578125Q735.888427734375 661.55517578125 763.7216796875 678.1107177734375Q791.554931640625 694.666259765625 791.554931640625 735.2218017578125V742.9996337890625Q791.554931640625 807.6661376953125 764.8882446289062 854.3883056640625Q738.2215576171875 901.1104736328125 685.9993286132812 926.8882446289062Q633.777099609375 952.666015625 557.554931640625 952.666015625Q480.6661376953125 952.666015625 423.88836669921875 927.8882446289062Q367.110595703125 903.1104736328125 332.49951171875 863.6104125976562Q297.888427734375 824.1103515625 286.11083984375 778.887939453125L113.11083984375 810.5538330078125Q139.221435546875 910.33154296875 204.22119140625 975.831787109375Q269.220947265625 1041.33203125 360.3321533203125 1074.22119140625Q451.443359375 1107.1103515625 554.7772216796875 1107.1103515625Q626.7777099609375 1107.1103515625 699.611083984375 1088.4990844726562Q772.4444580078125 1069.8878173828125 832.7220458984375 1027.2210693359375Q892.9996337890625 984.5543212890625 929.6105346679688 912.4989624023438Q966.221435546875 840.443603515625 966.221435546875 732.9998779296875V0H793.2215576171875V151.111083984375H784.7772216796875Q765.7772216796875 112.5555419921875 725.99951171875 72.388916015625Q686.2218017578125 32.2222900390625 621.2218627929688 5.33343505859375Q556.221923828125 -21.555419921875 460.7774658203125 -21.555419921875ZM488.666259765625 134.3333740234375Q590.444091796875 134.3333740234375 657.666259765625 172.66668701171875Q724.888427734375 211 758.2216796875 272.38885498046875Q791.554931640625 333.7777099609375 791.554931640625 402.22216796875V546.9996337890625Q780.9993896484375 535.7774658203125 748.6661987304688 526.3886108398438Q716.3330078125 516.999755859375 672.8331298828125 509.22198486328125Q629.333251953125 501.4442138671875 584.833251953125 495.27752685546875Q540.333251953125 489.11083984375 505.8885498046875 484.7774658203125Q442.6663818359375 476.7774658203125 387.0552978515625 457.2774658203125Q331.4442138671875 437.7774658203125 297.4442138671875 401.1663818359375Q263.4442138671875 364.5552978515625 263.4442138671875 302.3331298828125Q263.4442138671875 248.333251953125 291.88861083984375 210.88885498046875Q320.3330078125 173.4444580078125 370.9996337890625 153.888916015625Q421.666259765625 134.3333740234375 488.666259765625 134.3333740234375Z" transform="translate(389.3105 140.0000) scale(0.010742 -0.010742)"/>
  <path fill="#A09B8F" d="M319.332763671875 1490V0H143.77734375V1490Z" transform="translate(401.2344 140.0000) scale(0.010742 -0.010742)"/>
  <path fill="#A09B8F" d="M143.77734375 0V1090.443603515625H319.332763671875V0ZM232.110595703125 1283.6661376953125Q182.4439697265625 1283.6661376953125 146.77734375 1318.2739688648899Q111.1107177734375 1352.881800034467 111.1107177734375 1401.332763671875Q111.1107177734375 1450.44384765625 146.77734375 1484.7216186523438Q182.4439697265625 1518.9993896484375 231.9034696412318 1518.9993896484375Q282.332763671875 1518.9993896484375 317.9993896484375 1484.7216186523438Q353.666015625 1450.44384765625 353.666015625 1401.1172688802083Q353.666015625 1352.7772216796875 317.97117009238593 1318.2216796875Q282.2763245597718 1283.6661376953125 232.110595703125 1283.6661376953125Z" transform="translate(412.0947 140.0000) scale(0.010742 -0.010742)"/>
  <path fill="#A09B8F" d="M143.77734375 0V1090.443603515625H314.7772216796875L315.332763671875 855.55517578125H298.2215576171875Q324.7772216796875 940.332763671875 374.7216796875 996.7215576171875Q424.6661376953125 1053.1103515625 490.49945068359375 1081.7769775390625Q556.332763671875 1110.443603515625 628.332763671875 1110.443603515625Q751.2216796875 1110.443603515625 831.6107177734375 1037.4436645507812Q911.999755859375 964.4437255859375 933.5552978515625 854.444091796875H904.666259765625Q925.9996337890625 929.9993896484375 977.2218017578125 987.6659545898438Q1028.4439697265625 1045.33251953125 1102.1661376953125 1077.8880615234375Q1175.8883056640625 1110.443603515625 1264.79860778947 1110.443603515625Q1361.700847184577 1110.443603515625 1441.6202198815724 1068.443603515625Q1521.5395925785679 1026.443603515625 1568.991720117409 941.443603515625Q1616.44384765625 856.443603515625 1616.44384765625 726.443603515625V0H1440.888427734375V723.6658935546875Q1440.888427734375 845.3829524739583 1372.487235550332 897.6911100260417Q1304.0860433662888 949.999267578125 1213.5550537109375 949.999267578125Q1137.7319833260995 949.999267578125 1082.633885513117 918.2697523773693Q1027.535787700135 886.5402371766137 997.7120466820987 831.1394963498975Q967.8883056640625 775.7387555231813 967.8883056640625 704.221435546875V0H792.3328857421875V741.6658935546875Q792.3328857421875 835.5548095703125 729.6661987304688 892.7770385742188Q666.99951171875 949.999267578125 571.3853515625 949.999267578125Q505.96513671875 949.999267578125 448.093408203125 919.2770385742188Q390.2216796875 888.5548095703125 354.7772216796875 827.9168315686677Q319.332763671875 767.278853567023 319.332763671875 677.33251953125V0Z" transform="translate(417.0684 140.0000) scale(0.010742 -0.010742)"/>
  <path fill="#A09B8F" d="M460.7774658203125 -21.555419921875Q355.221923828125 -21.555419921875 270.27752685546875 16.666748046875Q185.3331298828125 54.888916015625 135.44427490234375 129.44439697265625Q85.555419921875 203.9998779296875 85.555419921875 311.777587890625Q85.555419921875 405.5552978515625 122.44427490234375 464.221923828125Q159.3331298828125 522.8885498046875 221.0552978515625 556.4996337890625Q282.7774658203125 590.1107177734375 359.11077880859375 607.1107177734375Q435.444091796875 624.1107177734375 513.8885498046875 634.1107177734375Q614.3330078125 647.55517578125 675.1107177734375 654.55517578125Q735.888427734375 661.55517578125 763.7216796875 678.1107177734375Q791.554931640625 694.666259765625 791.554931640625 735.2218017578125V742.9996337890625Q791.554931640625 807.6661376953125 764.8882446289062 854.3883056640625Q738.2215576171875 901.1104736328125 685.9993286132812 926.8882446289062Q633.777099609375 952.666015625 557.554931640625 952.666015625Q480.6661376953125 952.666015625 423.88836669921875 927.8882446289062Q367.110595703125 903.1104736328125 332.49951171875 863.6104125976562Q297.888427734375 824.1103515625 286.11083984375 778.887939453125L113.11083984375 810.5538330078125Q139.221435546875 910.33154296875 204.22119140625 975.831787109375Q269.220947265625 1041.33203125 360.3321533203125 1074.22119140625Q451.443359375 1107.1103515625 554.7772216796875 1107.1103515625Q626.7777099609375 1107.1103515625 699.611083984375 1088.4990844726562Q772.4444580078125 1069.8878173828125 832.7220458984375 1027.2210693359375Q892.9996337890625 984.5543212890625 929.6105346679688 912.4989624023438Q966.221435546875 840.443603515625 966.221435546875 732.9998779296875V0H793.2215576171875V151.111083984375H784.7772216796875Q765.7772216796875 112.5555419921875 725.99951171875 72.388916015625Q686.2218017578125 32.2222900390625 621.2218627929688 5.33343505859375Q556.221923828125 -21.555419921875 460.7774658203125 -21.555419921875ZM488.666259765625 134.3333740234375Q590.444091796875 134.3333740234375 657.666259765625 172.66668701171875Q724.888427734375 211 758.2216796875 272.38885498046875Q791.554931640625 333.7777099609375 791.554931640625 402.22216796875V546.9996337890625Q780.9993896484375 535.7774658203125 748.6661987304688 526.3886108398438Q716.3330078125 516.999755859375 672.8331298828125 509.22198486328125Q629.333251953125 501.4442138671875 584.833251953125 495.27752685546875Q540.333251953125 489.11083984375 505.8885498046875 484.7774658203125Q442.6663818359375 476.7774658203125 387.0552978515625 457.2774658203125Q331.4442138671875 437.7774658203125 297.4442138671875 401.1663818359375Q263.4442138671875 364.5552978515625 263.4442138671875 302.3331298828125Q263.4442138671875 248.333251953125 291.88861083984375 210.88885498046875Q320.3330078125 173.4444580078125 370.9996337890625 153.888916015625Q421.666259765625 134.3333740234375 488.666259765625 134.3333740234375Z" transform="translate(435.9746 140.0000) scale(0.010742 -0.010742)"/>
  <path fill="#A09B8F" d="M591.8883056640625 -437.555419921875Q470.110595703125 -437.555419921875 377.3883056640625 -403.8331298828125Q284.666015625 -370.11083984375 224.44378662109375 -309.44390869140625Q164.2215576171875 -248.7769775390625 138.9996337890625 -168.665283203125L297.4444580078125 -116.4443359375Q317.4443359375 -159.5557861328125 354.05548095703125 -197.88909912109375Q390.6666259765625 -236.222412109375 448.9443359375 -259.94451904296875Q507.2220458984375 -283.6666259765625 591.8883056640625 -283.6666259765625Q727.6661376953125 -283.6666259765625 810.8327026367188 -215.44427490234375Q893.999267578125 -147.221923828125 893.999267578125 -10.5552978515625V184.9993896484375H884.110595703125Q856.221435546875 140.110107421875 814.3878784179688 97.887939453125Q772.5543212890625 55.665771484375 709.6099243164062 28.38818359375Q646.66552734375 1.110595703125 555.554931640625 1.110595703125Q420.2215576171875 1.110595703125 314.77716064453125 67.27734375Q209.332763671875 133.444091796875 149.5550537109375 256.11077880859375Q89.77734375 378.7774658203125 89.77734375 547.99951171875Q89.77734375 716.554931640625 148.99951171875 842.277099609375Q208.2216796875 967.999267578125 313.94384765625 1037.5548095703125Q419.666015625 1107.1103515625 557.777099609375 1107.1103515625Q648.4432373046875 1107.1103515625 712.0543212890625 1078.9439086914062Q775.6654052734375 1050.7774658203125 818.4434204101562 1006.999755859375Q861.221435546875 963.2220458984375 887.7772216796875 917.666015625H897.6658935546875V1090.443603515625H1068.665771484375V-16.1107177734375Q1068.665771484375 -165.4442138671875 1003.8880004882812 -258.49981689453125Q939.1102294921875 -351.555419921875 830.6102905273438 -394.555419921875Q722.1103515625 -437.555419921875 591.8883056640625 -437.555419921875ZM583.777099609375 157.9993896484375Q683.999267578125 157.9993896484375 754.88818359375 205.61053466796875Q825.777099609375 253.2216796875 863.1104736328125 341.38836669921875Q900.44384765625 429.5550537109375 900.44384765625 550.2216796875Q900.44384765625 669.6661376953125 863.3882446289062 759.4994506835938Q826.3326416015625 849.332763671875 755.4437255859375 899.7216186523438Q684.5548095703125 950.1104736328125 583.777099609375 950.1104736328125Q484.4439697265625 950.1104736328125 413.66619873046875 899.8328247070312Q342.888427734375 849.55517578125 305.38836669921875 759.8885498046875Q267.8883056640625 670.221923828125 267.8883056640625 550.2216796875Q267.8883056640625 428.999267578125 305.6661376953125 340.999267578125Q343.4439697265625 252.999267578125 414.22174072265625 205.49932861328125Q484.99951171875 157.9993896484375 583.777099609375 157.9993896484375Z" transform="translate(447.8984 140.0000) scale(0.010742 -0.010742)"/>
  <path fill="#A09B8F" d="M143.77734375 0V1090.443603515625H319.332763671875V0ZM232.110595703125 1283.6661376953125Q182.4439697265625 1283.6661376953125 146.77734375 1318.2739688648899Q111.1107177734375 1352.881800034467 111.1107177734375 1401.332763671875Q111.1107177734375 1450.44384765625 146.77734375 1484.7216186523438Q182.4439697265625 1518.9993896484375 231.9034696412318 1518.9993896484375Q282.332763671875 1518.9993896484375 317.9993896484375 1484.7216186523438Q353.666015625 1450.44384765625 353.666015625 1401.1172688802083Q353.666015625 1352.7772216796875 317.97117009238593 1318.2216796875Q282.2763245597718 1283.6661376953125 232.110595703125 1283.6661376953125Z" transform="translate(460.9180 140.0000) scale(0.010742 -0.010742)"/>
  <path fill="#A09B8F" d="M319.332763671875 646.88818359375V0H143.77734375V1090.443603515625H313.6661376953125L314.2216796875 826.1104736328125H278.9991455078125Q330.443603515625 975.7769775390625 424.0546875 1041.4436645507812Q517.665771484375 1107.1103515625 643.77685546875 1107.1103515625Q754.110107421875 1107.1103515625 840.4434814453125 1060.6103515625Q926.77685546875 1014.1103515625 976.4991455078125 920.8325805664062Q1026.221435546875 827.5548095703125 1026.221435546875 685.999267578125V0H850.666015625V672.3326416015625Q850.666015625 804.8883056640625 784.054931640625 876.3327026367188Q717.44384765625 947.777099609375 599.554931640625 947.777099609375Q520.8883056640625 947.777099609375 457.332763671875 914.554931640625Q393.7772216796875 881.332763671875 356.55499267578125 814.5549926757812Q319.332763671875 747.7772216796875 319.332763671875 646.88818359375Z" transform="translate(465.8916 140.0000) scale(0.010742 -0.010742)"/>
  <path fill="#A09B8F" d="M591.8883056640625 -437.555419921875Q470.110595703125 -437.555419921875 377.3883056640625 -403.8331298828125Q284.666015625 -370.11083984375 224.44378662109375 -309.44390869140625Q164.2215576171875 -248.7769775390625 138.9996337890625 -168.665283203125L297.4444580078125 -116.4443359375Q317.4443359375 -159.5557861328125 354.05548095703125 -197.88909912109375Q390.6666259765625 -236.222412109375 448.9443359375 -259.94451904296875Q507.2220458984375 -283.6666259765625 591.8883056640625 -283.6666259765625Q727.6661376953125 -283.6666259765625 810.8327026367188 -215.44427490234375Q893.999267578125 -147.221923828125 893.999267578125 -10.5552978515625V184.9993896484375H884.110595703125Q856.221435546875 140.110107421875 814.3878784179688 97.887939453125Q772.5543212890625 55.665771484375 709.6099243164062 28.38818359375Q646.66552734375 1.110595703125 555.554931640625 1.110595703125Q420.2215576171875 1.110595703125 314.77716064453125 67.27734375Q209.332763671875 133.444091796875 149.5550537109375 256.11077880859375Q89.77734375 378.7774658203125 89.77734375 547.99951171875Q89.77734375 716.554931640625 148.99951171875 842.277099609375Q208.2216796875 967.999267578125 313.94384765625 1037.5548095703125Q419.666015625 1107.1103515625 557.777099609375 1107.1103515625Q648.4432373046875 1107.1103515625 712.0543212890625 1078.9439086914062Q775.6654052734375 1050.7774658203125 818.4434204101562 1006.999755859375Q861.221435546875 963.2220458984375 887.7772216796875 917.666015625H897.6658935546875V1090.443603515625H1068.665771484375V-16.1107177734375Q1068.665771484375 -165.4442138671875 1003.8880004882812 -258.49981689453125Q939.1102294921875 -351.555419921875 830.6102905273438 -394.555419921875Q722.1103515625 -437.555419921875 591.8883056640625 -437.555419921875ZM583.777099609375 157.9993896484375Q683.999267578125 157.9993896484375 754.88818359375 205.61053466796875Q825.777099609375 253.2216796875 863.1104736328125 341.38836669921875Q900.44384765625 429.5550537109375 900.44384765625 550.2216796875Q900.44384765625 669.6661376953125 863.3882446289062 759.4994506835938Q826.3326416015625 849.332763671875 755.4437255859375 899.7216186523438Q684.5548095703125 950.1104736328125 583.777099609375 950.1104736328125Q484.4439697265625 950.1104736328125 413.66619873046875 899.8328247070312Q342.888427734375 849.55517578125 305.38836669921875 759.8885498046875Q267.8883056640625 670.221923828125 267.8883056640625 550.2216796875Q267.8883056640625 428.999267578125 305.6661376953125 340.999267578125Q343.4439697265625 252.999267578125 414.22174072265625 205.49932861328125Q484.99951171875 157.9993896484375 583.777099609375 157.9993896484375Z" transform="translate(478.4600 140.0000) scale(0.010742 -0.010742)"/>
</svg>
